<?xml version="1.0" encoding="UTF-8" standalone="no"?>
<!-- Created with Inkscape (http://www.inkscape.org/) -->

<svg
   xmlns:dc="http://purl.org/dc/elements/1.1/"
   xmlns:cc="http://creativecommons.org/ns#"
   xmlns:rdf="http://www.w3.org/1999/02/22-rdf-syntax-ns#"
   xmlns:svg="http://www.w3.org/2000/svg"
   xmlns="http://www.w3.org/2000/svg"
   xmlns:sodipodi="http://sodipodi.sourceforge.net/DTD/sodipodi-0.dtd"
   xmlns:inkscape="http://www.inkscape.org/namespaces/inkscape"
   width="210mm"
   height="297mm"
   viewBox="0 0 744.09448819 1052.3622047"
   id="svg3788"
   version="1.1"
   inkscape:version="0.91 r13725"
   sodipodi:docname="guest screen.svg">
  <defs
     id="defs3790" />
  <sodipodi:namedview
     id="base"
     pagecolor="#ffffff"
     bordercolor="#666666"
     borderopacity="1.0"
     inkscape:pageopacity="0.0"
     inkscape:pageshadow="2"
     inkscape:zoom="1.1058587"
     inkscape:cx="429.98895"
     inkscape:cy="900.24699"
     inkscape:document-units="px"
     inkscape:current-layer="layer1"
     showgrid="false"
     inkscape:window-width="1920"
     inkscape:window-height="1005"
     inkscape:window-x="-9"
     inkscape:window-y="-9"
     inkscape:window-maximized="1" />
  <metadata
     id="metadata3793">
    <rdf:RDF>
      <cc:Work
         rdf:about="">
        <dc:format>image/svg+xml</dc:format>
        <dc:type
           rdf:resource="http://purl.org/dc/dcmitype/StillImage" />
        <dc:title></dc:title>
      </cc:Work>
    </rdf:RDF>
  </metadata>
  <g
     inkscape:label="Layer 1"
     inkscape:groupmode="layer"
     id="layer1">
    <path
       style="fill:none;fill-rule:evenodd;stroke:#000000;stroke-width:1px;stroke-linecap:butt;stroke-linejoin:miter;stroke-opacity:1"
       d="M 121.43758,39.200638 C 70.595344,34.419295 47.053734,61.138677 45.723304,113.48635 l -1.42857,794.28571 c 1.13887,68.75069 34.58063,99.81464 104.285706,88.57145 l 457.14286,0 c 91.92878,7.75209 87.95165,-40.44093 91.42858,-84.28574 l 0,-787.14285 C 704.90353,67.189798 681.2511,34.587931 612.86616,37.772067 Z"
       id="path3336"
       inkscape:connector-curvature="0"
       sodipodi:nodetypes="ccccccccc" />
    <path
       style="fill:none;fill-rule:evenodd;stroke:#000000;stroke-width:1px;stroke-linecap:butt;stroke-linejoin:miter;stroke-opacity:1"
       d="m 695.72331,134.91492 -650.000006,0"
       id="path3340"
       inkscape:connector-curvature="0" />
    <text
       xml:space="preserve"
       style="font-style:normal;font-weight:normal;font-size:22.5px;line-height:125%;font-family:sans-serif;letter-spacing:0px;word-spacing:0px;fill:#000000;fill-opacity:1;stroke:none;stroke-width:1px;stroke-linecap:butt;stroke-linejoin:miter;stroke-opacity:1"
       x="465.7233"
       y="209.20064"
       id="text3599"
       sodipodi:linespacing="125%"><tspan
         sodipodi:role="line"
         id="tspan3601"
         x="465.7233"
         y="209.20064" /></text>
    <path
       style="fill:none;fill-rule:evenodd;stroke:#000000;stroke-width:0.9620387px;stroke-linecap:butt;stroke-linejoin:miter;stroke-opacity:1"
       d="m 250.19334,112.92132 -0.0626,-17.724109 12.08583,-7.21666 c -6.1974,-3.84889 -6.65327,-7.697767 -7.51451,-11.546651 0.94179,-6.008078 4.08374,-10.143743 11.52224,-10.622921 7.98541,0.494707 10.58635,4.636913 11.52224,10.853855 -1.4633,7.086317 -4.48907,9.341327 -7.63975,11.200247 l 12.27369,7.04346 0,17.955049 z"
       id="path3613"
       inkscape:connector-curvature="0"
       sodipodi:nodetypes="cccccccccc" />
    <path
       style="fill:none;fill-rule:evenodd;stroke:#000000;stroke-width:0.9620387px;stroke-linecap:butt;stroke-linejoin:miter;stroke-opacity:1"
       d="m 255.68249,67.927298 c 2.54848,-1.717171 4.33983,-3.691516 9.89409,-4.387728 3.32814,0.300435 6.49423,0.169259 11.27175,4.329995 l 4.1956,-15.357049 -10.2072,8.082657 -4.88443,-10.391988 -4.8218,10.565188 -11.52224,-7.620791 z"
       id="path3615"
       inkscape:connector-curvature="0"
       sodipodi:nodetypes="ccccccccc" />
    <path
       style="fill:none;fill-rule:evenodd;stroke:#000000;stroke-width:1px;stroke-linecap:butt;stroke-linejoin:miter;stroke-opacity:1"
       d="m 426.93754,113.77582 -0.0625,-19.187499 12.0625,-7.8125 c -6.18544,-4.16667 -6.64043,-8.333331 -7.5,-12.499996 0.93997,-6.50413 4.07586,-10.98126 11.5,-11.500001 7.97,0.535552 10.56592,5.019761 11.5,11.750001 -1.46047,7.671395 -4.4804,10.112596 -7.625,12.124996 l 12.25,7.625 0,19.437499 z"
       id="path3613-1"
       inkscape:connector-curvature="0"
       sodipodi:nodetypes="cccccccccc" />
    <path
       style="fill:none;fill-rule:evenodd;stroke:#000000;stroke-width:1px;stroke-linecap:butt;stroke-linejoin:miter;stroke-opacity:1"
       d="m 445.85265,110.24028 -0.0625,-19.187499 12.0625,-7.81249 c -6.18544,-4.166675 -6.64043,-8.333336 -7.5,-12.500002 0.93997,-6.504133 4.07586,-10.981258 11.5,-11.499999 7.97,0.535552 10.56592,5.019758 11.5,11.749999 -1.46047,7.671397 -4.4804,10.112597 -7.625,12.125002 l 12.25,7.62499 0,19.437499 z"
       id="path3613-6"
       inkscape:connector-curvature="0"
       sodipodi:nodetypes="cccccccccc" />
    <path
       style="fill:none;fill-rule:evenodd;stroke:#000000;stroke-width:1px;stroke-linecap:butt;stroke-linejoin:miter;stroke-opacity:1"
       d="m 464.4142,113.95259 -0.0625,-19.187499 12.0625,-7.8125 c -6.18544,-4.16667 -6.64043,-8.333331 -7.5,-12.499988 0.93997,-6.504136 4.07586,-10.981261 11.5,-11.500002 7.97,0.535552 10.56592,5.019758 11.5,11.750002 -1.46047,7.671387 -4.4804,10.112588 -7.625,12.124988 l 12.25,7.625 0,19.437499 z"
       id="path3613-3"
       inkscape:connector-curvature="0"
       sodipodi:nodetypes="cccccccccc" />
    <rect
       style="fill:none;stroke:#000000"
       id="rect3644"
       width="112.5"
       height="4.75"
       x="406.845"
       y="121.5007" />
    <path
       style="fill:none;fill-rule:evenodd;stroke:#000000;stroke-width:1px;stroke-linecap:butt;stroke-linejoin:miter;stroke-opacity:1"
       d="M 45.456865,217.9762 695.9951,218.98635"
       id="path3926"
       inkscape:connector-curvature="0" />
    <text
       xml:space="preserve"
       style="font-style:normal;font-weight:normal;font-size:30px;line-height:125%;font-family:sans-serif;letter-spacing:0px;word-spacing:0px;fill:#000000;fill-opacity:1;stroke:none;stroke-width:1px;stroke-linecap:butt;stroke-linejoin:miter;stroke-opacity:1"
       x="146.47212"
       y="185.65134"
       id="text3928"
       sodipodi:linespacing="125%"><tspan
         sodipodi:role="line"
         id="tspan3930"
         x="146.47212"
         y="185.65134">Christmas Party</tspan></text>
    <path
       style="fill:none;fill-rule:evenodd;stroke:#000000;stroke-width:1px;stroke-linecap:butt;stroke-linejoin:miter;stroke-opacity:1"
       d="m 64.712897,164.24872 23.044105,13.25825 -23.107239,14.20527 z"
       id="path3932"
       inkscape:connector-curvature="0"
       sodipodi:nodetypes="cccc" />
    <path
       style="fill:none;fill-rule:evenodd;stroke:#000000;stroke-width:1px;stroke-linecap:butt;stroke-linejoin:miter;stroke-opacity:1"
       d="M 76.022733,163.79168 98.056686,177.30247 75.012583,191.0658"
       id="path3932-5"
       inkscape:connector-curvature="0"
       sodipodi:nodetypes="ccc" />
    <path
       style="fill:none;fill-rule:evenodd;stroke:#000000;stroke-width:1px;stroke-linecap:butt;stroke-linejoin:miter;stroke-opacity:1"
       d="m 86.108088,163.48959 22.033962,13.51079 -23.044112,13.76333"
       id="path3932-5-9"
       inkscape:connector-curvature="0"
       sodipodi:nodetypes="ccc" />
    <rect
       style="fill:none;stroke:#000000"
       id="rect3966"
       width="612.85712"
       height="87.14286"
       x="68.571426"
       y="246.64792"
       ry="0" />
    <text
       xml:space="preserve"
       style="font-style:normal;font-weight:normal;font-size:30px;line-height:125%;font-family:sans-serif;letter-spacing:0px;word-spacing:0px;fill:#000000;fill-opacity:1;stroke:none;stroke-width:1px;stroke-linecap:butt;stroke-linejoin:miter;stroke-opacity:1"
       x="250.4366"
       y="288.07651"
       id="text3968"
       sodipodi:linespacing="125%"><tspan
         sodipodi:role="line"
         id="tspan3970"
         x="250.4366"
         y="288.07651">20th Dec - 19:00</tspan><tspan
         sodipodi:role="line"
         x="250.4366"
         y="325.57651"
         id="tspan4089">21th Dec - 04:00</tspan></text>
    <circle
       style="fill:none;stroke:#000000"
       id="path3383"
       cx="638.72864"
       cy="290.83444"
       r="31.428572" />
    <circle
       style="fill:none;stroke:#000000"
       id="path3383-9"
       cx="115.11382"
       cy="290.73959"
       r="31.428572" />
    <path
       style="fill:none;fill-rule:evenodd;stroke:#000000;stroke-width:1px;stroke-linecap:butt;stroke-linejoin:miter;stroke-opacity:1"
       d="m 621.58582,285.12017 -8.57143,11.42857 22.85714,15.71428 25.71429,-31.42857 -11.42858,-10 -17.14285,21.42857 z"
       id="path3416"
       inkscape:connector-curvature="0" />
    <path
       style="fill:none;fill-rule:evenodd;stroke:#000000;stroke-width:1px;stroke-linecap:butt;stroke-linejoin:miter;stroke-opacity:1"
       d="m 102.68467,264.88877 -10.813183,8.95613 14.105153,16.41126 -14.018493,16.45196 10.471353,8.98043 12.72779,-16.19046 14.36294,15.93792 8.99947,-9.23931 -16.0272,-15.61403 15.68165,-17.47481 -10.69851,-8.23178 -12.76215,16.88045 z"
       id="path3420"
       inkscape:connector-curvature="0"
       sodipodi:nodetypes="ccccccccccccc" />
    <rect
       style="fill:none;stroke:#000000"
       id="rect3966-4"
       width="612.85712"
       height="87.14286"
       x="67.941162"
       y="351.38309"
       ry="0" />
    <text
       xml:space="preserve"
       style="font-style:normal;font-weight:normal;font-size:30px;line-height:125%;font-family:sans-serif;letter-spacing:0px;word-spacing:0px;fill:#000000;fill-opacity:1;stroke:none;stroke-width:1px;stroke-linecap:butt;stroke-linejoin:miter;stroke-opacity:1"
       x="249.80634"
       y="387.38602"
       id="text3968-4"
       sodipodi:linespacing="125%"><tspan
         sodipodi:role="line"
         id="tspan3970-2"
         x="249.80634"
         y="387.38602">20th Dec - 19:00</tspan><tspan
         sodipodi:role="line"
         x="249.80634"
         y="424.88602"
         id="tspan4087">22th Dec - 20:00</tspan></text>
    <circle
       style="fill:none;stroke:#000000"
       id="path3383-1"
       cx="639.90692"
       cy="397.37817"
       r="31.428572" />
    <circle
       style="fill:none;stroke:#000000"
       id="path3383-9-5"
       cx="111.77074"
       cy="392.76193"
       r="31.428572" />
    <path
       style="fill:none;fill-rule:evenodd;stroke:#000000;stroke-width:1px;stroke-linecap:butt;stroke-linejoin:miter;stroke-opacity:1"
       d="m 622.76409,391.66388 -8.57143,11.42857 22.85714,15.71428 25.71429,-31.42857 -11.42858,-10 -17.14285,21.42857 z"
       id="path3416-4"
       inkscape:connector-curvature="0" />
    <path
       style="fill:none;fill-rule:evenodd;stroke:#000000;stroke-width:1px;stroke-linecap:butt;stroke-linejoin:miter;stroke-opacity:1"
       d="m 99.341573,366.91111 -10.81318,8.95613 14.105147,16.41126 -14.018487,16.45196 10.47135,8.98043 12.727797,-16.19046 14.36294,15.93792 8.99947,-9.23931 -16.0272,-15.61403 15.68165,-17.47481 -10.69851,-8.23178 -12.76215,16.88045 z"
       id="path3420-1"
       inkscape:connector-curvature="0"
       sodipodi:nodetypes="ccccccccccccc" />
    <rect
       style="fill:none;stroke:#000000"
       id="rect3966-49"
       width="612.85712"
       height="87.14286"
       x="68.845436"
       y="455.37466"
       ry="0" />
    <text
       xml:space="preserve"
       style="font-style:normal;font-weight:normal;font-size:30px;line-height:125%;font-family:sans-serif;letter-spacing:0px;word-spacing:0px;fill:#000000;fill-opacity:1;stroke:none;stroke-width:1px;stroke-linecap:butt;stroke-linejoin:miter;stroke-opacity:1"
       x="247.09351"
       y="489.56903"
       id="text3968-5"
       sodipodi:linespacing="125%"><tspan
         sodipodi:role="line"
         id="tspan3970-8"
         x="247.09351"
         y="489.56903">23th Dec - 19:00</tspan><tspan
         sodipodi:role="line"
         x="247.09351"
         y="527.06903"
         id="tspan4085">23th Dec - 23:30</tspan></text>
    <circle
       style="fill:none;stroke:#000000"
       id="path3383-4"
       cx="637.19409"
       cy="499.56116"
       r="31.428572" />
    <circle
       style="fill:none;stroke:#000000"
       id="path3383-9-54"
       cx="114.48352"
       cy="501.2749"
       r="31.428572" />
    <path
       style="fill:none;fill-rule:evenodd;stroke:#000000;stroke-width:1px;stroke-linecap:butt;stroke-linejoin:miter;stroke-opacity:1"
       d="m 620.05128,493.84692 -8.57143,11.42857 22.85714,15.71428 25.71429,-31.42857 -11.42858,-10 -17.14285,21.42857 z"
       id="path3416-9"
       inkscape:connector-curvature="0" />
    <path
       style="fill:none;fill-rule:evenodd;stroke:#000000;stroke-width:1px;stroke-linecap:butt;stroke-linejoin:miter;stroke-opacity:1"
       d="m 102.0544,475.42407 -10.813178,8.95613 14.105148,16.41126 -14.018488,16.45196 10.471348,8.98043 12.7278,-16.19046 14.36294,15.93792 8.99947,-9.23931 -16.0272,-15.61403 15.68165,-17.47481 -10.69851,-8.23178 -12.76215,16.88045 z"
       id="path3420-3"
       inkscape:connector-curvature="0"
       sodipodi:nodetypes="ccccccccccccc" />
    <rect
       style="fill:none;stroke:#000000"
       id="rect3966-0"
       width="612.85712"
       height="87.14286"
       x="69.749718"
       y="562.9834"
       ry="0" />
    <text
       xml:space="preserve"
       style="font-style:normal;font-weight:normal;font-size:30px;line-height:125%;font-family:sans-serif;letter-spacing:0px;word-spacing:0px;fill:#000000;fill-opacity:1;stroke:none;stroke-width:1px;stroke-linecap:butt;stroke-linejoin:miter;stroke-opacity:1"
       x="247.09351"
       y="596.2735"
       id="text3968-8"
       sodipodi:linespacing="125%"><tspan
         sodipodi:role="line"
         id="tspan3970-6"
         x="247.09351"
         y="596.2735">24th Dec - 19:00</tspan><tspan
         sodipodi:role="line"
         x="247.09351"
         y="633.7735"
         id="tspan4083">25th Dec - 02:00</tspan></text>
    <circle
       style="fill:none;stroke:#000000"
       id="path3383-97"
       cx="636.28979"
       cy="606.26562"
       r="31.428572" />
    <circle
       style="fill:none;stroke:#000000"
       id="path3383-9-3"
       cx="112.675"
       cy="607.07507"
       r="31.428572" />
    <path
       style="fill:none;fill-rule:evenodd;stroke:#000000;stroke-width:1px;stroke-linecap:butt;stroke-linejoin:miter;stroke-opacity:1"
       d="m 619.147,600.55134 -8.57143,11.42857 22.85714,15.71428 25.71429,-31.42857 -11.42858,-10 -17.14285,21.42857 z"
       id="path3416-0"
       inkscape:connector-curvature="0" />
    <path
       style="fill:none;fill-rule:evenodd;stroke:#000000;stroke-width:1px;stroke-linecap:butt;stroke-linejoin:miter;stroke-opacity:1"
       d="m 100.24585,581.22421 -10.813182,8.95613 14.105152,16.41126 -14.018492,16.45196 10.47135,8.98043 12.727802,-16.19046 14.36294,15.93792 8.99947,-9.23931 -16.0272,-15.61403 15.68165,-17.47481 -10.69851,-8.23178 -12.76215,16.88045 z"
       id="path3420-5"
       inkscape:connector-curvature="0"
       sodipodi:nodetypes="ccccccccccccc" />
  </g>
</svg>
